# xmcd
#
# Track frame offsets:
#	150
#	15684
#	30686
#	44589
#	57199
#	71377
#	86303
#	100336
#	113577
#	128546
#	142600
#	157332
#
# Disc length: 2252 seconds
#
# Revision: 0
# Processed by: cddbd v1.5.1PL0 Copyright (c) Steve Scherf et al.
# Submitted via: dBpowerAMP V4.0
#
DISCID=9308ca0c
DTITLE=Various Artist - Women of the Blues
DYEAR=1900
DGENRE=
TTITLE0=Bessie Smith - Careless Love
TTITLE1=Ma Rainey - Black Eye Blues
TTITLE2=Mamie Smith - Goin' Crazy With The Blues
TTITLE3=Memphis Minnie - Me And My Chaeuffeur Blues
TTITLE4=Bea Booze - See See Rider
TTITLE5=Trixie Smith - Freight Train Blues
TTITLE6=Victoria Spivey - Moaning The Blues
TTITLE7=Sippie Wallace - You Gunna Need My Help
TTITLE8=Lizzie Miles - Electrician Blues
TTITLE9=Ida Cox - Last Mile Blues
TTITLE10=Helen Humes - Unlucky Woman
TTITLE11=Sister Rosetta Tharpe - Troube In Mind
EXTD=
EXTT0=
EXTT1=
EXTT2=
EXTT3=
EXTT4=
EXTT5=
EXTT6=
EXTT7=
EXTT8=
EXTT9=
EXTT10=
EXTT11=
PLAYORDER=
